<?xml version="1.0" encoding="utf-8" ?>
<svg baseProfile="full" height="39" version="1.1" width="39" xmlns="http://www.w3.org/2000/svg" xmlns:ev="http://www.w3.org/2001/xml-events" xmlns:xlink="http://www.w3.org/1999/xlink"><defs /><rect fill="rgb(0, 0, 0)" height="9" width="1" x="0" y="1" /><rect fill="rgb(0, 0, 0)" height="9" width="1" x="20" y="1" /><rect fill="rgb(0, 0, 0)" height="9" width="1" x="0" y="11" /><rect fill="rgb(0, 0, 0)" height="9" width="1" x="10" y="11" /><rect fill="rgb(0, 0, 0)" height="9" width="1" x="20" y="11" /><rect fill="rgb(0, 0, 0)" height="1" width="9" x="1" y="0" /><rect fill="rgb(0, 0, 0)" height="1" width="9" x="11" y="0" /><rect fill="rgb(0, 0, 0)" height="1" width="9" x="11" y="10" /><rect fill="rgb(0, 0, 0)" height="1" width="9" x="1" y="20" /><rect fill="rgb(0, 0, 0)" height="1" width="9" x="11" y="20" /><rect fill="rgb(0, 0, 0)" height="1" width="1" x="0" y="0" /><rect fill="rgb(0, 0, 0)" height="1" width="1" x="10" y="0" /><rect fill="rgb(0, 0, 0)" height="1" width="1" x="20" y="0" /><rect fill="rgb(0, 0, 0)" height="1" width="1" x="0" y="10" /><rect fill="rgb(0, 0, 0)" height="1" width="1" x="10" y="10" /><rect fill="rgb(0, 0, 0)" height="1" width="1" x="20" y="10" /><rect fill="rgb(0, 0, 0)" height="1" width="1" x="0" y="20" /><rect fill="rgb(0, 0, 0)" height="1" width="1" x="10" y="20" /><rect fill="rgb(0, 0, 0)" height="1" width="1" x="20" y="20" /></svg>