<?xml version="1.0" encoding="utf-8" ?>
<svg baseProfile="full" height="140" version="1.1" width="130" xmlns="http://www.w3.org/2000/svg" xmlns:ev="http://www.w3.org/2001/xml-events" xmlns:xlink="http://www.w3.org/1999/xlink"><defs /><rect fill="rgb(141, 19, 36)" height="10" width="10" x="0" y="0" /><rect fill="rgb(141, 19, 36)" height="10" width="10" x="10" y="0" /><rect fill="rgb(141, 19, 36)" height="10" width="10" x="20" y="0" /><rect fill="rgb(186, 245, 61)" height="10" width="10" x="30" y="0" /><rect fill="rgb(62, 185, 30)" height="10" width="10" x="40" y="0" /><rect fill="rgb(62, 185, 30)" height="10" width="10" x="50" y="0" /><rect fill="rgb(62, 185, 30)" height="10" width="10" x="60" y="0" /><rect fill="rgb(224, 113, 8)" height="10" width="10" x="70" y="0" /><rect fill="rgb(199, 9, 31)" height="10" width="10" x="80" y="0" /><rect fill="rgb(237, 183, 163)" height="10" width="10" x="90" y="0" /><rect fill="rgb(229, 12, 87)" height="10" width="10" x="100" y="0" /><rect fill="rgb(229, 12, 87)" height="10" width="10" x="110" y="0" /><rect fill="rgb(229, 12, 87)" height="10" width="10" x="120" y="0" /><rect fill="rgb(15, 173, 104)" height="10" width="10" x="0" y="10" /><rect fill="rgb(141, 19, 36)" height="10" width="10" x="10" y="10" /><rect fill="rgb(186, 245, 61)" height="10" width="10" x="20" y="10" /><rect fill="rgb(186, 245, 61)" height="10" width="10" x="30" y="10" /><rect fill="rgb(186, 245, 61)" height="10" width="10" x="40" y="10" /><rect fill="rgb(62, 185, 30)" height="10" width="10" x="50" y="10" /><rect fill="rgb(24, 26, 210)" height="10" width="10" x="60" y="10" /><rect fill="rgb(199, 9, 31)" height="10" width="10" x="70" y="10" /><rect fill="rgb(199, 9, 31)" height="10" width="10" x="80" y="10" /><rect fill="rgb(237, 183, 163)" height="10" width="10" x="90" y="10" /><rect fill="rgb(237, 183, 163)" height="10" width="10" x="100" y="10" /><rect fill="rgb(229, 12, 87)" height="10" width="10" x="110" y="10" /><rect fill="rgb(234, 199, 60)" height="10" width="10" x="120" y="10" /><rect fill="rgb(15, 173, 104)" height="10" width="10" x="0" y="20" /><rect fill="rgb(15, 173, 104)" height="10" width="10" x="10" y="20" /><rect fill="rgb(198, 109, 86)" height="10" width="10" x="20" y="20" /><rect fill="rgb(198, 109, 86)" height="10" width="10" x="30" y="20" /><rect fill="rgb(198, 109, 86)" height="10" width="10" x="40" y="20" /><rect fill="rgb(24, 26, 210)" height="10" width="10" x="50" y="20" /><rect fill="rgb(24, 26, 210)" height="10" width="10" x="60" y="20" /><rect fill="rgb(24, 26, 210)" height="10" width="10" x="70" y="20" /><rect fill="rgb(199, 9, 31)" height="10" width="10" x="80" y="20" /><rect fill="rgb(237, 183, 163)" height="10" width="10" x="90" y="20" /><rect fill="rgb(79, 87, 58)" height="10" width="10" x="100" y="20" /><rect fill="rgb(234, 199, 60)" height="10" width="10" x="110" y="20" /><rect fill="rgb(234, 199, 60)" height="10" width="10" x="120" y="20" /><rect fill="rgb(15, 173, 104)" height="10" width="10" x="0" y="30" /><rect fill="rgb(83, 83, 161)" height="10" width="10" x="10" y="30" /><rect fill="rgb(125, 106, 159)" height="10" width="10" x="20" y="30" /><rect fill="rgb(198, 109, 86)" height="10" width="10" x="30" y="30" /><rect fill="rgb(112, 142, 112)" height="10" width="10" x="40" y="30" /><rect fill="rgb(233, 15, 34)" height="10" width="10" x="50" y="30" /><rect fill="rgb(233, 15, 34)" height="10" width="10" x="60" y="30" /><rect fill="rgb(233, 15, 34)" height="10" width="10" x="70" y="30" /><rect fill="rgb(195, 173, 21)" height="10" width="10" x="80" y="30" /><rect fill="rgb(79, 87, 58)" height="10" width="10" x="90" y="30" /><rect fill="rgb(79, 87, 58)" height="10" width="10" x="100" y="30" /><rect fill="rgb(79, 87, 58)" height="10" width="10" x="110" y="30" /><rect fill="rgb(234, 199, 60)" height="10" width="10" x="120" y="30" /><rect fill="rgb(83, 83, 161)" height="10" width="10" x="0" y="40" /><rect fill="rgb(83, 83, 161)" height="10" width="10" x="10" y="40" /><rect fill="rgb(125, 106, 159)" height="10" width="10" x="20" y="40" /><rect fill="rgb(125, 106, 159)" height="10" width="10" x="30" y="40" /><rect fill="rgb(112, 142, 112)" height="10" width="10" x="40" y="40" /><rect fill="rgb(112, 142, 112)" height="10" width="10" x="50" y="40" /><rect fill="rgb(233, 15, 34)" height="10" width="10" x="60" y="40" /><rect fill="rgb(195, 173, 21)" height="10" width="10" x="70" y="40" /><rect fill="rgb(195, 173, 21)" height="10" width="10" x="80" y="40" /><rect fill="rgb(164, 134, 18)" height="10" width="10" x="90" y="40" /><rect fill="rgb(164, 134, 18)" height="10" width="10" x="100" y="40" /><rect fill="rgb(164, 134, 18)" height="10" width="10" x="110" y="40" /><rect fill="rgb(71, 102, 236)" height="10" width="10" x="120" y="40" /><rect fill="rgb(170, 76, 128)" height="10" width="10" x="0" y="50" /><rect fill="rgb(83, 83, 161)" height="10" width="10" x="10" y="50" /><rect fill="rgb(125, 106, 159)" height="10" width="10" x="20" y="50" /><rect fill="rgb(153, 166, 214)" height="10" width="10" x="30" y="50" /><rect fill="rgb(112, 142, 112)" height="10" width="10" x="40" y="50" /><rect fill="rgb(208, 248, 88)" height="10" width="10" x="50" y="50" /><rect fill="rgb(208, 248, 88)" height="10" width="10" x="60" y="50" /><rect fill="rgb(208, 248, 88)" height="10" width="10" x="70" y="50" /><rect fill="rgb(195, 173, 21)" height="10" width="10" x="80" y="50" /><rect fill="rgb(152, 71, 111)" height="10" width="10" x="90" y="50" /><rect fill="rgb(164, 134, 18)" height="10" width="10" x="100" y="50" /><rect fill="rgb(71, 102, 236)" height="10" width="10" x="110" y="50" /><rect fill="rgb(71, 102, 236)" height="10" width="10" x="120" y="50" /><rect fill="rgb(170, 76, 128)" height="10" width="10" x="0" y="60" /><rect fill="rgb(170, 76, 128)" height="10" width="10" x="10" y="60" /><rect fill="rgb(153, 166, 214)" height="10" width="10" x="20" y="60" /><rect fill="rgb(153, 166, 214)" height="10" width="10" x="30" y="60" /><rect fill="rgb(153, 166, 214)" height="10" width="10" x="40" y="60" /><rect fill="rgb(238, 80, 88)" height="10" width="10" x="50" y="60" /><rect fill="rgb(208, 248, 88)" height="10" width="10" x="60" y="60" /><rect fill="rgb(239, 159, 103)" height="10" width="10" x="70" y="60" /><rect fill="rgb(152, 71, 111)" height="10" width="10" x="80" y="60" /><rect fill="rgb(152, 71, 111)" height="10" width="10" x="90" y="60" /><rect fill="rgb(152, 71, 111)" height="10" width="10" x="100" y="60" /><rect fill="rgb(55, 106, 220)" height="10" width="10" x="110" y="60" /><rect fill="rgb(71, 102, 236)" height="10" width="10" x="120" y="60" /><rect fill="rgb(170, 76, 128)" height="10" width="10" x="0" y="70" /><rect fill="rgb(120, 28, 210)" height="10" width="10" x="10" y="70" /><rect fill="rgb(249, 198, 95)" height="10" width="10" x="20" y="70" /><rect fill="rgb(249, 198, 95)" height="10" width="10" x="30" y="70" /><rect fill="rgb(249, 198, 95)" height="10" width="10" x="40" y="70" /><rect fill="rgb(238, 80, 88)" height="10" width="10" x="50" y="70" /><rect fill="rgb(238, 80, 88)" height="10" width="10" x="60" y="70" /><rect fill="rgb(239, 159, 103)" height="10" width="10" x="70" y="70" /><rect fill="rgb(239, 159, 103)" height="10" width="10" x="80" y="70" /><rect fill="rgb(156, 208, 7)" height="10" width="10" x="90" y="70" /><rect fill="rgb(55, 106, 220)" height="10" width="10" x="100" y="70" /><rect fill="rgb(55, 106, 220)" height="10" width="10" x="110" y="70" /><rect fill="rgb(55, 106, 220)" height="10" width="10" x="120" y="70" /><rect fill="rgb(120, 28, 210)" height="10" width="10" x="0" y="80" /><rect fill="rgb(120, 28, 210)" height="10" width="10" x="10" y="80" /><rect fill="rgb(120, 28, 210)" height="10" width="10" x="20" y="80" /><rect fill="rgb(249, 198, 95)" height="10" width="10" x="30" y="80" /><rect fill="rgb(190, 136, 44)" height="10" width="10" x="40" y="80" /><rect fill="rgb(238, 80, 88)" height="10" width="10" x="50" y="80" /><rect fill="rgb(75, 155, 2)" height="10" width="10" x="60" y="80" /><rect fill="rgb(239, 159, 103)" height="10" width="10" x="70" y="80" /><rect fill="rgb(156, 208, 7)" height="10" width="10" x="80" y="80" /><rect fill="rgb(156, 208, 7)" height="10" width="10" x="90" y="80" /><rect fill="rgb(149, 58, 224)" height="10" width="10" x="100" y="80" /><rect fill="rgb(149, 58, 224)" height="10" width="10" x="110" y="80" /><rect fill="rgb(149, 58, 224)" height="10" width="10" x="120" y="80" /><rect fill="rgb(217, 14, 37)" height="10" width="10" x="0" y="90" /><rect fill="rgb(163, 60, 172)" height="10" width="10" x="10" y="90" /><rect fill="rgb(163, 60, 172)" height="10" width="10" x="20" y="90" /><rect fill="rgb(163, 60, 172)" height="10" width="10" x="30" y="90" /><rect fill="rgb(190, 136, 44)" height="10" width="10" x="40" y="90" /><rect fill="rgb(190, 136, 44)" height="10" width="10" x="50" y="90" /><rect fill="rgb(75, 155, 2)" height="10" width="10" x="60" y="90" /><rect fill="rgb(75, 155, 2)" height="10" width="10" x="70" y="90" /><rect fill="rgb(17, 175, 105)" height="10" width="10" x="80" y="90" /><rect fill="rgb(156, 208, 7)" height="10" width="10" x="90" y="90" /><rect fill="rgb(155, 5, 70)" height="10" width="10" x="100" y="90" /><rect fill="rgb(149, 58, 224)" height="10" width="10" x="110" y="90" /><rect fill="rgb(0, 0, 0)" height="10" width="10" x="120" y="90" /><rect fill="rgb(217, 14, 37)" height="10" width="10" x="0" y="100" /><rect fill="rgb(217, 14, 37)" height="10" width="10" x="10" y="100" /><rect fill="rgb(163, 60, 172)" height="10" width="10" x="20" y="100" /><rect fill="rgb(174, 79, 37)" height="10" width="10" x="30" y="100" /><rect fill="rgb(190, 136, 44)" height="10" width="10" x="40" y="100" /><rect fill="rgb(82, 6, 185)" height="10" width="10" x="50" y="100" /><rect fill="rgb(75, 155, 2)" height="10" width="10" x="60" y="100" /><rect fill="rgb(17, 175, 105)" height="10" width="10" x="70" y="100" /><rect fill="rgb(17, 175, 105)" height="10" width="10" x="80" y="100" /><rect fill="rgb(155, 5, 70)" height="10" width="10" x="90" y="100" /><rect fill="rgb(155, 5, 70)" height="10" width="10" x="100" y="100" /><rect fill="rgb(0, 0, 0)" height="10" width="10" x="110" y="100" /><rect fill="rgb(0, 0, 0)" height="10" width="10" x="120" y="100" /><rect fill="rgb(217, 14, 37)" height="10" width="10" x="0" y="110" /><rect fill="rgb(201, 120, 34)" height="10" width="10" x="10" y="110" /><rect fill="rgb(174, 79, 37)" height="10" width="10" x="20" y="110" /><rect fill="rgb(174, 79, 37)" height="10" width="10" x="30" y="110" /><rect fill="rgb(174, 79, 37)" height="10" width="10" x="40" y="110" /><rect fill="rgb(82, 6, 185)" height="10" width="10" x="50" y="110" /><rect fill="rgb(82, 6, 185)" height="10" width="10" x="60" y="110" /><rect fill="rgb(179, 85, 70)" height="10" width="10" x="70" y="110" /><rect fill="rgb(17, 175, 105)" height="10" width="10" x="80" y="110" /><rect fill="rgb(155, 5, 70)" height="10" width="10" x="100" y="110" /><rect fill="rgb(0, 0, 0)" height="10" width="10" x="120" y="110" /><rect fill="rgb(201, 120, 34)" height="10" width="10" x="0" y="120" /><rect fill="rgb(201, 120, 34)" height="10" width="10" x="10" y="120" /><rect fill="rgb(229, 226, 61)" height="10" width="10" x="20" y="120" /><rect fill="rgb(229, 226, 61)" height="10" width="10" x="30" y="120" /><rect fill="rgb(229, 226, 61)" height="10" width="10" x="40" y="120" /><rect fill="rgb(82, 6, 185)" height="10" width="10" x="50" y="120" /><rect fill="rgb(179, 85, 70)" height="10" width="10" x="60" y="120" /><rect fill="rgb(179, 85, 70)" height="10" width="10" x="70" y="120" /><rect fill="rgb(179, 85, 70)" height="10" width="10" x="80" y="120" /><rect fill="rgb(201, 120, 34)" height="10" width="10" x="10" y="130" /><rect fill="rgb(229, 226, 61)" height="10" width="10" x="30" y="130" /></svg>