<?xml version="1.0" encoding="utf-8" ?>
<svg baseProfile="full" height="140" version="1.1" width="130" xmlns="http://www.w3.org/2000/svg" xmlns:ev="http://www.w3.org/2001/xml-events" xmlns:xlink="http://www.w3.org/1999/xlink"><defs /><rect fill="rgb(169, 89, 233)" height="10" width="10" x="0" y="0" /><rect fill="rgb(169, 89, 233)" height="10" width="10" x="10" y="0" /><rect fill="rgb(169, 89, 233)" height="10" width="10" x="20" y="0" /><rect fill="rgb(154, 27, 82)" height="10" width="10" x="30" y="0" /><rect fill="rgb(157, 121, 57)" height="10" width="10" x="40" y="0" /><rect fill="rgb(157, 121, 57)" height="10" width="10" x="50" y="0" /><rect fill="rgb(157, 121, 57)" height="10" width="10" x="60" y="0" /><rect fill="rgb(183, 9, 205)" height="10" width="10" x="70" y="0" /><rect fill="rgb(244, 109, 109)" height="10" width="10" x="80" y="0" /><rect fill="rgb(55, 240, 223)" height="10" width="10" x="90" y="0" /><rect fill="rgb(226, 242, 200)" height="10" width="10" x="100" y="0" /><rect fill="rgb(226, 242, 200)" height="10" width="10" x="110" y="0" /><rect fill="rgb(226, 242, 200)" height="10" width="10" x="120" y="0" /><rect fill="rgb(203, 155, 79)" height="10" width="10" x="0" y="10" /><rect fill="rgb(169, 89, 233)" height="10" width="10" x="10" y="10" /><rect fill="rgb(154, 27, 82)" height="10" width="10" x="20" y="10" /><rect fill="rgb(154, 27, 82)" height="10" width="10" x="30" y="10" /><rect fill="rgb(154, 27, 82)" height="10" width="10" x="40" y="10" /><rect fill="rgb(157, 121, 57)" height="10" width="10" x="50" y="10" /><rect fill="rgb(238, 181, 100)" height="10" width="10" x="60" y="10" /><rect fill="rgb(244, 109, 109)" height="10" width="10" x="70" y="10" /><rect fill="rgb(244, 109, 109)" height="10" width="10" x="80" y="10" /><rect fill="rgb(55, 240, 223)" height="10" width="10" x="90" y="10" /><rect fill="rgb(55, 240, 223)" height="10" width="10" x="100" y="10" /><rect fill="rgb(226, 242, 200)" height="10" width="10" x="110" y="10" /><rect fill="rgb(168, 157, 44)" height="10" width="10" x="120" y="10" /><rect fill="rgb(203, 155, 79)" height="10" width="10" x="0" y="20" /><rect fill="rgb(203, 155, 79)" height="10" width="10" x="10" y="20" /><rect fill="rgb(245, 193, 0)" height="10" width="10" x="20" y="20" /><rect fill="rgb(245, 193, 0)" height="10" width="10" x="30" y="20" /><rect fill="rgb(245, 193, 0)" height="10" width="10" x="40" y="20" /><rect fill="rgb(238, 181, 100)" height="10" width="10" x="50" y="20" /><rect fill="rgb(238, 181, 100)" height="10" width="10" x="60" y="20" /><rect fill="rgb(238, 181, 100)" height="10" width="10" x="70" y="20" /><rect fill="rgb(244, 109, 109)" height="10" width="10" x="80" y="20" /><rect fill="rgb(55, 240, 223)" height="10" width="10" x="90" y="20" /><rect fill="rgb(26, 132, 18)" height="10" width="10" x="100" y="20" /><rect fill="rgb(168, 157, 44)" height="10" width="10" x="110" y="20" /><rect fill="rgb(168, 157, 44)" height="10" width="10" x="120" y="20" /><rect fill="rgb(203, 155, 79)" height="10" width="10" x="0" y="30" /><rect fill="rgb(223, 228, 85)" height="10" width="10" x="10" y="30" /><rect fill="rgb(38, 56, 48)" height="10" width="10" x="20" y="30" /><rect fill="rgb(245, 193, 0)" height="10" width="10" x="30" y="30" /><rect fill="rgb(27, 64, 25)" height="10" width="10" x="40" y="30" /><rect fill="rgb(211, 113, 13)" height="10" width="10" x="50" y="30" /><rect fill="rgb(211, 113, 13)" height="10" width="10" x="60" y="30" /><rect fill="rgb(211, 113, 13)" height="10" width="10" x="70" y="30" /><rect fill="rgb(200, 165, 5)" height="10" width="10" x="80" y="30" /><rect fill="rgb(26, 132, 18)" height="10" width="10" x="90" y="30" /><rect fill="rgb(26, 132, 18)" height="10" width="10" x="100" y="30" /><rect fill="rgb(26, 132, 18)" height="10" width="10" x="110" y="30" /><rect fill="rgb(168, 157, 44)" height="10" width="10" x="120" y="30" /><rect fill="rgb(223, 228, 85)" height="10" width="10" x="0" y="40" /><rect fill="rgb(223, 228, 85)" height="10" width="10" x="10" y="40" /><rect fill="rgb(38, 56, 48)" height="10" width="10" x="20" y="40" /><rect fill="rgb(38, 56, 48)" height="10" width="10" x="30" y="40" /><rect fill="rgb(27, 64, 25)" height="10" width="10" x="40" y="40" /><rect fill="rgb(27, 64, 25)" height="10" width="10" x="50" y="40" /><rect fill="rgb(211, 113, 13)" height="10" width="10" x="60" y="40" /><rect fill="rgb(200, 165, 5)" height="10" width="10" x="70" y="40" /><rect fill="rgb(200, 165, 5)" height="10" width="10" x="80" y="40" /><rect fill="rgb(228, 235, 167)" height="10" width="10" x="90" y="40" /><rect fill="rgb(228, 235, 167)" height="10" width="10" x="100" y="40" /><rect fill="rgb(228, 235, 167)" height="10" width="10" x="110" y="40" /><rect fill="rgb(56, 142, 165)" height="10" width="10" x="120" y="40" /><rect fill="rgb(203, 60, 83)" height="10" width="10" x="0" y="50" /><rect fill="rgb(223, 228, 85)" height="10" width="10" x="10" y="50" /><rect fill="rgb(38, 56, 48)" height="10" width="10" x="20" y="50" /><rect fill="rgb(221, 189, 143)" height="10" width="10" x="30" y="50" /><rect fill="rgb(27, 64, 25)" height="10" width="10" x="40" y="50" /><rect fill="rgb(152, 138, 191)" height="10" width="10" x="50" y="50" /><rect fill="rgb(152, 138, 191)" height="10" width="10" x="60" y="50" /><rect fill="rgb(152, 138, 191)" height="10" width="10" x="70" y="50" /><rect fill="rgb(200, 165, 5)" height="10" width="10" x="80" y="50" /><rect fill="rgb(142, 205, 175)" height="10" width="10" x="90" y="50" /><rect fill="rgb(228, 235, 167)" height="10" width="10" x="100" y="50" /><rect fill="rgb(56, 142, 165)" height="10" width="10" x="110" y="50" /><rect fill="rgb(56, 142, 165)" height="10" width="10" x="120" y="50" /><rect fill="rgb(203, 60, 83)" height="10" width="10" x="0" y="60" /><rect fill="rgb(203, 60, 83)" height="10" width="10" x="10" y="60" /><rect fill="rgb(221, 189, 143)" height="10" width="10" x="20" y="60" /><rect fill="rgb(221, 189, 143)" height="10" width="10" x="30" y="60" /><rect fill="rgb(221, 189, 143)" height="10" width="10" x="40" y="60" /><rect fill="rgb(90, 119, 211)" height="10" width="10" x="50" y="60" /><rect fill="rgb(152, 138, 191)" height="10" width="10" x="60" y="60" /><rect fill="rgb(86, 76, 108)" height="10" width="10" x="70" y="60" /><rect fill="rgb(142, 205, 175)" height="10" width="10" x="80" y="60" /><rect fill="rgb(142, 205, 175)" height="10" width="10" x="90" y="60" /><rect fill="rgb(142, 205, 175)" height="10" width="10" x="100" y="60" /><rect fill="rgb(8, 242, 135)" height="10" width="10" x="110" y="60" /><rect fill="rgb(56, 142, 165)" height="10" width="10" x="120" y="60" /><rect fill="rgb(203, 60, 83)" height="10" width="10" x="0" y="70" /><rect fill="rgb(209, 86, 77)" height="10" width="10" x="10" y="70" /><rect fill="rgb(68, 36, 34)" height="10" width="10" x="20" y="70" /><rect fill="rgb(68, 36, 34)" height="10" width="10" x="30" y="70" /><rect fill="rgb(68, 36, 34)" height="10" width="10" x="40" y="70" /><rect fill="rgb(90, 119, 211)" height="10" width="10" x="50" y="70" /><rect fill="rgb(90, 119, 211)" height="10" width="10" x="60" y="70" /><rect fill="rgb(86, 76, 108)" height="10" width="10" x="70" y="70" /><rect fill="rgb(86, 76, 108)" height="10" width="10" x="80" y="70" /><rect fill="rgb(131, 64, 201)" height="10" width="10" x="90" y="70" /><rect fill="rgb(8, 242, 135)" height="10" width="10" x="100" y="70" /><rect fill="rgb(8, 242, 135)" height="10" width="10" x="110" y="70" /><rect fill="rgb(8, 242, 135)" height="10" width="10" x="120" y="70" /><rect fill="rgb(209, 86, 77)" height="10" width="10" x="0" y="80" /><rect fill="rgb(209, 86, 77)" height="10" width="10" x="10" y="80" /><rect fill="rgb(209, 86, 77)" height="10" width="10" x="20" y="80" /><rect fill="rgb(68, 36, 34)" height="10" width="10" x="30" y="80" /><rect fill="rgb(221, 195, 80)" height="10" width="10" x="40" y="80" /><rect fill="rgb(90, 119, 211)" height="10" width="10" x="50" y="80" /><rect fill="rgb(49, 170, 150)" height="10" width="10" x="60" y="80" /><rect fill="rgb(86, 76, 108)" height="10" width="10" x="70" y="80" /><rect fill="rgb(131, 64, 201)" height="10" width="10" x="80" y="80" /><rect fill="rgb(131, 64, 201)" height="10" width="10" x="90" y="80" /><rect fill="rgb(44, 52, 57)" height="10" width="10" x="100" y="80" /><rect fill="rgb(44, 52, 57)" height="10" width="10" x="110" y="80" /><rect fill="rgb(44, 52, 57)" height="10" width="10" x="120" y="80" /><rect fill="rgb(68, 207, 60)" height="10" width="10" x="0" y="90" /><rect fill="rgb(162, 1, 69)" height="10" width="10" x="10" y="90" /><rect fill="rgb(162, 1, 69)" height="10" width="10" x="20" y="90" /><rect fill="rgb(162, 1, 69)" height="10" width="10" x="30" y="90" /><rect fill="rgb(221, 195, 80)" height="10" width="10" x="40" y="90" /><rect fill="rgb(221, 195, 80)" height="10" width="10" x="50" y="90" /><rect fill="rgb(49, 170, 150)" height="10" width="10" x="60" y="90" /><rect fill="rgb(49, 170, 150)" height="10" width="10" x="70" y="90" /><rect fill="rgb(136, 8, 131)" height="10" width="10" x="80" y="90" /><rect fill="rgb(131, 64, 201)" height="10" width="10" x="90" y="90" /><rect fill="rgb(104, 27, 80)" height="10" width="10" x="100" y="90" /><rect fill="rgb(44, 52, 57)" height="10" width="10" x="110" y="90" /><rect fill="rgb(0, 0, 0)" height="10" width="10" x="120" y="90" /><rect fill="rgb(68, 207, 60)" height="10" width="10" x="0" y="100" /><rect fill="rgb(68, 207, 60)" height="10" width="10" x="10" y="100" /><rect fill="rgb(162, 1, 69)" height="10" width="10" x="20" y="100" /><rect fill="rgb(212, 2, 243)" height="10" width="10" x="30" y="100" /><rect fill="rgb(221, 195, 80)" height="10" width="10" x="40" y="100" /><rect fill="rgb(103, 237, 53)" height="10" width="10" x="50" y="100" /><rect fill="rgb(49, 170, 150)" height="10" width="10" x="60" y="100" /><rect fill="rgb(136, 8, 131)" height="10" width="10" x="70" y="100" /><rect fill="rgb(136, 8, 131)" height="10" width="10" x="80" y="100" /><rect fill="rgb(104, 27, 80)" height="10" width="10" x="90" y="100" /><rect fill="rgb(104, 27, 80)" height="10" width="10" x="100" y="100" /><rect fill="rgb(0, 0, 0)" height="10" width="10" x="110" y="100" /><rect fill="rgb(0, 0, 0)" height="10" width="10" x="120" y="100" /><rect fill="rgb(68, 207, 60)" height="10" width="10" x="0" y="110" /><rect fill="rgb(139, 108, 73)" height="10" width="10" x="10" y="110" /><rect fill="rgb(212, 2, 243)" height="10" width="10" x="20" y="110" /><rect fill="rgb(212, 2, 243)" height="10" width="10" x="30" y="110" /><rect fill="rgb(212, 2, 243)" height="10" width="10" x="40" y="110" /><rect fill="rgb(103, 237, 53)" height="10" width="10" x="50" y="110" /><rect fill="rgb(103, 237, 53)" height="10" width="10" x="60" y="110" /><rect fill="rgb(119, 217, 228)" height="10" width="10" x="70" y="110" /><rect fill="rgb(136, 8, 131)" height="10" width="10" x="80" y="110" /><rect fill="rgb(104, 27, 80)" height="10" width="10" x="100" y="110" /><rect fill="rgb(0, 0, 0)" height="10" width="10" x="120" y="110" /><rect fill="rgb(139, 108, 73)" height="10" width="10" x="0" y="120" /><rect fill="rgb(139, 108, 73)" height="10" width="10" x="10" y="120" /><rect fill="rgb(138, 7, 124)" height="10" width="10" x="20" y="120" /><rect fill="rgb(138, 7, 124)" height="10" width="10" x="30" y="120" /><rect fill="rgb(138, 7, 124)" height="10" width="10" x="40" y="120" /><rect fill="rgb(103, 237, 53)" height="10" width="10" x="50" y="120" /><rect fill="rgb(119, 217, 228)" height="10" width="10" x="60" y="120" /><rect fill="rgb(119, 217, 228)" height="10" width="10" x="70" y="120" /><rect fill="rgb(119, 217, 228)" height="10" width="10" x="80" y="120" /><rect fill="rgb(139, 108, 73)" height="10" width="10" x="10" y="130" /><rect fill="rgb(138, 7, 124)" height="10" width="10" x="30" y="130" /></svg>