<?xml version="1.0" encoding="utf-8" ?>
<svg baseProfile="full" height="140" version="1.1" width="130" xmlns="http://www.w3.org/2000/svg" xmlns:ev="http://www.w3.org/2001/xml-events" xmlns:xlink="http://www.w3.org/1999/xlink"><defs /><rect fill="rgb(151, 97, 247)" height="10" width="10" x="0" y="0" /><rect fill="rgb(151, 97, 247)" height="10" width="10" x="10" y="0" /><rect fill="rgb(151, 97, 247)" height="10" width="10" x="20" y="0" /><rect fill="rgb(199, 105, 50)" height="10" width="10" x="30" y="0" /><rect fill="rgb(78, 253, 215)" height="10" width="10" x="40" y="0" /><rect fill="rgb(78, 253, 215)" height="10" width="10" x="50" y="0" /><rect fill="rgb(78, 253, 215)" height="10" width="10" x="60" y="0" /><rect fill="rgb(235, 254, 112)" height="10" width="10" x="70" y="0" /><rect fill="rgb(17, 198, 55)" height="10" width="10" x="80" y="0" /><rect fill="rgb(55, 172, 164)" height="10" width="10" x="90" y="0" /><rect fill="rgb(30, 72, 249)" height="10" width="10" x="100" y="0" /><rect fill="rgb(30, 72, 249)" height="10" width="10" x="110" y="0" /><rect fill="rgb(30, 72, 249)" height="10" width="10" x="120" y="0" /><rect fill="rgb(116, 122, 199)" height="10" width="10" x="0" y="10" /><rect fill="rgb(151, 97, 247)" height="10" width="10" x="10" y="10" /><rect fill="rgb(199, 105, 50)" height="10" width="10" x="20" y="10" /><rect fill="rgb(199, 105, 50)" height="10" width="10" x="30" y="10" /><rect fill="rgb(199, 105, 50)" height="10" width="10" x="40" y="10" /><rect fill="rgb(78, 253, 215)" height="10" width="10" x="50" y="10" /><rect fill="rgb(111, 113, 16)" height="10" width="10" x="60" y="10" /><rect fill="rgb(17, 198, 55)" height="10" width="10" x="70" y="10" /><rect fill="rgb(17, 198, 55)" height="10" width="10" x="80" y="10" /><rect fill="rgb(55, 172, 164)" height="10" width="10" x="90" y="10" /><rect fill="rgb(55, 172, 164)" height="10" width="10" x="100" y="10" /><rect fill="rgb(30, 72, 249)" height="10" width="10" x="110" y="10" /><rect fill="rgb(167, 120, 240)" height="10" width="10" x="120" y="10" /><rect fill="rgb(116, 122, 199)" height="10" width="10" x="0" y="20" /><rect fill="rgb(116, 122, 199)" height="10" width="10" x="10" y="20" /><rect fill="rgb(36, 4, 157)" height="10" width="10" x="20" y="20" /><rect fill="rgb(36, 4, 157)" height="10" width="10" x="30" y="20" /><rect fill="rgb(36, 4, 157)" height="10" width="10" x="40" y="20" /><rect fill="rgb(111, 113, 16)" height="10" width="10" x="50" y="20" /><rect fill="rgb(111, 113, 16)" height="10" width="10" x="60" y="20" /><rect fill="rgb(111, 113, 16)" height="10" width="10" x="70" y="20" /><rect fill="rgb(17, 198, 55)" height="10" width="10" x="80" y="20" /><rect fill="rgb(55, 172, 164)" height="10" width="10" x="90" y="20" /><rect fill="rgb(115, 10, 40)" height="10" width="10" x="100" y="20" /><rect fill="rgb(167, 120, 240)" height="10" width="10" x="110" y="20" /><rect fill="rgb(167, 120, 240)" height="10" width="10" x="120" y="20" /><rect fill="rgb(116, 122, 199)" height="10" width="10" x="0" y="30" /><rect fill="rgb(175, 88, 149)" height="10" width="10" x="10" y="30" /><rect fill="rgb(194, 151, 42)" height="10" width="10" x="20" y="30" /><rect fill="rgb(36, 4, 157)" height="10" width="10" x="30" y="30" /><rect fill="rgb(125, 37, 111)" height="10" width="10" x="40" y="30" /><rect fill="rgb(8, 38, 207)" height="10" width="10" x="50" y="30" /><rect fill="rgb(8, 38, 207)" height="10" width="10" x="60" y="30" /><rect fill="rgb(8, 38, 207)" height="10" width="10" x="70" y="30" /><rect fill="rgb(255, 234, 187)" height="10" width="10" x="80" y="30" /><rect fill="rgb(115, 10, 40)" height="10" width="10" x="90" y="30" /><rect fill="rgb(115, 10, 40)" height="10" width="10" x="100" y="30" /><rect fill="rgb(115, 10, 40)" height="10" width="10" x="110" y="30" /><rect fill="rgb(167, 120, 240)" height="10" width="10" x="120" y="30" /><rect fill="rgb(175, 88, 149)" height="10" width="10" x="0" y="40" /><rect fill="rgb(175, 88, 149)" height="10" width="10" x="10" y="40" /><rect fill="rgb(194, 151, 42)" height="10" width="10" x="20" y="40" /><rect fill="rgb(194, 151, 42)" height="10" width="10" x="30" y="40" /><rect fill="rgb(125, 37, 111)" height="10" width="10" x="40" y="40" /><rect fill="rgb(125, 37, 111)" height="10" width="10" x="50" y="40" /><rect fill="rgb(8, 38, 207)" height="10" width="10" x="60" y="40" /><rect fill="rgb(255, 234, 187)" height="10" width="10" x="70" y="40" /><rect fill="rgb(255, 234, 187)" height="10" width="10" x="80" y="40" /><rect fill="rgb(165, 37, 224)" height="10" width="10" x="90" y="40" /><rect fill="rgb(165, 37, 224)" height="10" width="10" x="100" y="40" /><rect fill="rgb(165, 37, 224)" height="10" width="10" x="110" y="40" /><rect fill="rgb(62, 179, 206)" height="10" width="10" x="120" y="40" /><rect fill="rgb(253, 80, 204)" height="10" width="10" x="0" y="50" /><rect fill="rgb(175, 88, 149)" height="10" width="10" x="10" y="50" /><rect fill="rgb(194, 151, 42)" height="10" width="10" x="20" y="50" /><rect fill="rgb(79, 113, 164)" height="10" width="10" x="30" y="50" /><rect fill="rgb(125, 37, 111)" height="10" width="10" x="40" y="50" /><rect fill="rgb(38, 157, 245)" height="10" width="10" x="50" y="50" /><rect fill="rgb(38, 157, 245)" height="10" width="10" x="60" y="50" /><rect fill="rgb(38, 157, 245)" height="10" width="10" x="70" y="50" /><rect fill="rgb(255, 234, 187)" height="10" width="10" x="80" y="50" /><rect fill="rgb(47, 253, 253)" height="10" width="10" x="90" y="50" /><rect fill="rgb(165, 37, 224)" height="10" width="10" x="100" y="50" /><rect fill="rgb(62, 179, 206)" height="10" width="10" x="110" y="50" /><rect fill="rgb(62, 179, 206)" height="10" width="10" x="120" y="50" /><rect fill="rgb(253, 80, 204)" height="10" width="10" x="0" y="60" /><rect fill="rgb(253, 80, 204)" height="10" width="10" x="10" y="60" /><rect fill="rgb(79, 113, 164)" height="10" width="10" x="20" y="60" /><rect fill="rgb(79, 113, 164)" height="10" width="10" x="30" y="60" /><rect fill="rgb(79, 113, 164)" height="10" width="10" x="40" y="60" /><rect fill="rgb(78, 124, 38)" height="10" width="10" x="50" y="60" /><rect fill="rgb(38, 157, 245)" height="10" width="10" x="60" y="60" /><rect fill="rgb(194, 97, 96)" height="10" width="10" x="70" y="60" /><rect fill="rgb(47, 253, 253)" height="10" width="10" x="80" y="60" /><rect fill="rgb(47, 253, 253)" height="10" width="10" x="90" y="60" /><rect fill="rgb(47, 253, 253)" height="10" width="10" x="100" y="60" /><rect fill="rgb(103, 131, 100)" height="10" width="10" x="110" y="60" /><rect fill="rgb(62, 179, 206)" height="10" width="10" x="120" y="60" /><rect fill="rgb(253, 80, 204)" height="10" width="10" x="0" y="70" /><rect fill="rgb(65, 157, 174)" height="10" width="10" x="10" y="70" /><rect fill="rgb(155, 189, 62)" height="10" width="10" x="20" y="70" /><rect fill="rgb(155, 189, 62)" height="10" width="10" x="30" y="70" /><rect fill="rgb(155, 189, 62)" height="10" width="10" x="40" y="70" /><rect fill="rgb(78, 124, 38)" height="10" width="10" x="50" y="70" /><rect fill="rgb(78, 124, 38)" height="10" width="10" x="60" y="70" /><rect fill="rgb(194, 97, 96)" height="10" width="10" x="70" y="70" /><rect fill="rgb(194, 97, 96)" height="10" width="10" x="80" y="70" /><rect fill="rgb(212, 77, 53)" height="10" width="10" x="90" y="70" /><rect fill="rgb(103, 131, 100)" height="10" width="10" x="100" y="70" /><rect fill="rgb(103, 131, 100)" height="10" width="10" x="110" y="70" /><rect fill="rgb(103, 131, 100)" height="10" width="10" x="120" y="70" /><rect fill="rgb(65, 157, 174)" height="10" width="10" x="0" y="80" /><rect fill="rgb(65, 157, 174)" height="10" width="10" x="10" y="80" /><rect fill="rgb(65, 157, 174)" height="10" width="10" x="20" y="80" /><rect fill="rgb(155, 189, 62)" height="10" width="10" x="30" y="80" /><rect fill="rgb(4, 39, 81)" height="10" width="10" x="40" y="80" /><rect fill="rgb(78, 124, 38)" height="10" width="10" x="50" y="80" /><rect fill="rgb(88, 36, 145)" height="10" width="10" x="60" y="80" /><rect fill="rgb(194, 97, 96)" height="10" width="10" x="70" y="80" /><rect fill="rgb(212, 77, 53)" height="10" width="10" x="80" y="80" /><rect fill="rgb(212, 77, 53)" height="10" width="10" x="90" y="80" /><rect fill="rgb(226, 200, 216)" height="10" width="10" x="100" y="80" /><rect fill="rgb(226, 200, 216)" height="10" width="10" x="110" y="80" /><rect fill="rgb(226, 200, 216)" height="10" width="10" x="120" y="80" /><rect fill="rgb(166, 63, 217)" height="10" width="10" x="0" y="90" /><rect fill="rgb(231, 192, 228)" height="10" width="10" x="10" y="90" /><rect fill="rgb(231, 192, 228)" height="10" width="10" x="20" y="90" /><rect fill="rgb(231, 192, 228)" height="10" width="10" x="30" y="90" /><rect fill="rgb(4, 39, 81)" height="10" width="10" x="40" y="90" /><rect fill="rgb(4, 39, 81)" height="10" width="10" x="50" y="90" /><rect fill="rgb(88, 36, 145)" height="10" width="10" x="60" y="90" /><rect fill="rgb(88, 36, 145)" height="10" width="10" x="70" y="90" /><rect fill="rgb(228, 45, 113)" height="10" width="10" x="80" y="90" /><rect fill="rgb(212, 77, 53)" height="10" width="10" x="90" y="90" /><rect fill="rgb(7, 194, 241)" height="10" width="10" x="100" y="90" /><rect fill="rgb(226, 200, 216)" height="10" width="10" x="110" y="90" /><rect fill="rgb(0, 0, 0)" height="10" width="10" x="120" y="90" /><rect fill="rgb(166, 63, 217)" height="10" width="10" x="0" y="100" /><rect fill="rgb(166, 63, 217)" height="10" width="10" x="10" y="100" /><rect fill="rgb(231, 192, 228)" height="10" width="10" x="20" y="100" /><rect fill="rgb(118, 146, 241)" height="10" width="10" x="30" y="100" /><rect fill="rgb(4, 39, 81)" height="10" width="10" x="40" y="100" /><rect fill="rgb(30, 205, 6)" height="10" width="10" x="50" y="100" /><rect fill="rgb(88, 36, 145)" height="10" width="10" x="60" y="100" /><rect fill="rgb(228, 45, 113)" height="10" width="10" x="70" y="100" /><rect fill="rgb(228, 45, 113)" height="10" width="10" x="80" y="100" /><rect fill="rgb(7, 194, 241)" height="10" width="10" x="90" y="100" /><rect fill="rgb(7, 194, 241)" height="10" width="10" x="100" y="100" /><rect fill="rgb(0, 0, 0)" height="10" width="10" x="110" y="100" /><rect fill="rgb(0, 0, 0)" height="10" width="10" x="120" y="100" /><rect fill="rgb(166, 63, 217)" height="10" width="10" x="0" y="110" /><rect fill="rgb(156, 96, 190)" height="10" width="10" x="10" y="110" /><rect fill="rgb(118, 146, 241)" height="10" width="10" x="20" y="110" /><rect fill="rgb(118, 146, 241)" height="10" width="10" x="30" y="110" /><rect fill="rgb(118, 146, 241)" height="10" width="10" x="40" y="110" /><rect fill="rgb(30, 205, 6)" height="10" width="10" x="50" y="110" /><rect fill="rgb(30, 205, 6)" height="10" width="10" x="60" y="110" /><rect fill="rgb(248, 197, 63)" height="10" width="10" x="70" y="110" /><rect fill="rgb(228, 45, 113)" height="10" width="10" x="80" y="110" /><rect fill="rgb(7, 194, 241)" height="10" width="10" x="100" y="110" /><rect fill="rgb(0, 0, 0)" height="10" width="10" x="120" y="110" /><rect fill="rgb(156, 96, 190)" height="10" width="10" x="0" y="120" /><rect fill="rgb(156, 96, 190)" height="10" width="10" x="10" y="120" /><rect fill="rgb(134, 119, 209)" height="10" width="10" x="20" y="120" /><rect fill="rgb(134, 119, 209)" height="10" width="10" x="30" y="120" /><rect fill="rgb(134, 119, 209)" height="10" width="10" x="40" y="120" /><rect fill="rgb(30, 205, 6)" height="10" width="10" x="50" y="120" /><rect fill="rgb(248, 197, 63)" height="10" width="10" x="60" y="120" /><rect fill="rgb(248, 197, 63)" height="10" width="10" x="70" y="120" /><rect fill="rgb(248, 197, 63)" height="10" width="10" x="80" y="120" /><rect fill="rgb(156, 96, 190)" height="10" width="10" x="10" y="130" /><rect fill="rgb(134, 119, 209)" height="10" width="10" x="30" y="130" /></svg>