<?xml version="1.0" encoding="utf-8" ?>
<svg baseProfile="full" height="140" version="1.1" width="130" xmlns="http://www.w3.org/2000/svg" xmlns:ev="http://www.w3.org/2001/xml-events" xmlns:xlink="http://www.w3.org/1999/xlink"><defs /><rect fill="rgb(186, 124, 196)" height="10" width="10" x="0" y="0" /><rect fill="rgb(186, 124, 196)" height="10" width="10" x="10" y="0" /><rect fill="rgb(186, 124, 196)" height="10" width="10" x="20" y="0" /><rect fill="rgb(184, 192, 154)" height="10" width="10" x="30" y="0" /><rect fill="rgb(211, 185, 57)" height="10" width="10" x="40" y="0" /><rect fill="rgb(211, 185, 57)" height="10" width="10" x="50" y="0" /><rect fill="rgb(211, 185, 57)" height="10" width="10" x="60" y="0" /><rect fill="rgb(8, 63, 175)" height="10" width="10" x="70" y="0" /><rect fill="rgb(183, 208, 172)" height="10" width="10" x="80" y="0" /><rect fill="rgb(101, 187, 178)" height="10" width="10" x="90" y="0" /><rect fill="rgb(147, 4, 98)" height="10" width="10" x="100" y="0" /><rect fill="rgb(147, 4, 98)" height="10" width="10" x="110" y="0" /><rect fill="rgb(147, 4, 98)" height="10" width="10" x="120" y="0" /><rect fill="rgb(23, 181, 127)" height="10" width="10" x="0" y="10" /><rect fill="rgb(186, 124, 196)" height="10" width="10" x="10" y="10" /><rect fill="rgb(184, 192, 154)" height="10" width="10" x="20" y="10" /><rect fill="rgb(184, 192, 154)" height="10" width="10" x="30" y="10" /><rect fill="rgb(184, 192, 154)" height="10" width="10" x="40" y="10" /><rect fill="rgb(211, 185, 57)" height="10" width="10" x="50" y="10" /><rect fill="rgb(149, 68, 9)" height="10" width="10" x="60" y="10" /><rect fill="rgb(183, 208, 172)" height="10" width="10" x="70" y="10" /><rect fill="rgb(183, 208, 172)" height="10" width="10" x="80" y="10" /><rect fill="rgb(101, 187, 178)" height="10" width="10" x="90" y="10" /><rect fill="rgb(101, 187, 178)" height="10" width="10" x="100" y="10" /><rect fill="rgb(147, 4, 98)" height="10" width="10" x="110" y="10" /><rect fill="rgb(39, 78, 123)" height="10" width="10" x="120" y="10" /><rect fill="rgb(23, 181, 127)" height="10" width="10" x="0" y="20" /><rect fill="rgb(23, 181, 127)" height="10" width="10" x="10" y="20" /><rect fill="rgb(104, 126, 0)" height="10" width="10" x="20" y="20" /><rect fill="rgb(104, 126, 0)" height="10" width="10" x="30" y="20" /><rect fill="rgb(104, 126, 0)" height="10" width="10" x="40" y="20" /><rect fill="rgb(149, 68, 9)" height="10" width="10" x="50" y="20" /><rect fill="rgb(149, 68, 9)" height="10" width="10" x="60" y="20" /><rect fill="rgb(149, 68, 9)" height="10" width="10" x="70" y="20" /><rect fill="rgb(183, 208, 172)" height="10" width="10" x="80" y="20" /><rect fill="rgb(101, 187, 178)" height="10" width="10" x="90" y="20" /><rect fill="rgb(250, 90, 242)" height="10" width="10" x="100" y="20" /><rect fill="rgb(39, 78, 123)" height="10" width="10" x="110" y="20" /><rect fill="rgb(39, 78, 123)" height="10" width="10" x="120" y="20" /><rect fill="rgb(23, 181, 127)" height="10" width="10" x="0" y="30" /><rect fill="rgb(29, 158, 79)" height="10" width="10" x="10" y="30" /><rect fill="rgb(200, 101, 225)" height="10" width="10" x="20" y="30" /><rect fill="rgb(104, 126, 0)" height="10" width="10" x="30" y="30" /><rect fill="rgb(231, 190, 24)" height="10" width="10" x="40" y="30" /><rect fill="rgb(122, 101, 77)" height="10" width="10" x="50" y="30" /><rect fill="rgb(122, 101, 77)" height="10" width="10" x="60" y="30" /><rect fill="rgb(122, 101, 77)" height="10" width="10" x="70" y="30" /><rect fill="rgb(219, 157, 19)" height="10" width="10" x="80" y="30" /><rect fill="rgb(250, 90, 242)" height="10" width="10" x="90" y="30" /><rect fill="rgb(250, 90, 242)" height="10" width="10" x="100" y="30" /><rect fill="rgb(250, 90, 242)" height="10" width="10" x="110" y="30" /><rect fill="rgb(39, 78, 123)" height="10" width="10" x="120" y="30" /><rect fill="rgb(29, 158, 79)" height="10" width="10" x="0" y="40" /><rect fill="rgb(29, 158, 79)" height="10" width="10" x="10" y="40" /><rect fill="rgb(200, 101, 225)" height="10" width="10" x="20" y="40" /><rect fill="rgb(200, 101, 225)" height="10" width="10" x="30" y="40" /><rect fill="rgb(231, 190, 24)" height="10" width="10" x="40" y="40" /><rect fill="rgb(231, 190, 24)" height="10" width="10" x="50" y="40" /><rect fill="rgb(122, 101, 77)" height="10" width="10" x="60" y="40" /><rect fill="rgb(219, 157, 19)" height="10" width="10" x="70" y="40" /><rect fill="rgb(219, 157, 19)" height="10" width="10" x="80" y="40" /><rect fill="rgb(230, 236, 139)" height="10" width="10" x="90" y="40" /><rect fill="rgb(230, 236, 139)" height="10" width="10" x="100" y="40" /><rect fill="rgb(230, 236, 139)" height="10" width="10" x="110" y="40" /><rect fill="rgb(35, 192, 78)" height="10" width="10" x="120" y="40" /><rect fill="rgb(177, 108, 30)" height="10" width="10" x="0" y="50" /><rect fill="rgb(29, 158, 79)" height="10" width="10" x="10" y="50" /><rect fill="rgb(200, 101, 225)" height="10" width="10" x="20" y="50" /><rect fill="rgb(141, 107, 193)" height="10" width="10" x="30" y="50" /><rect fill="rgb(231, 190, 24)" height="10" width="10" x="40" y="50" /><rect fill="rgb(73, 228, 236)" height="10" width="10" x="50" y="50" /><rect fill="rgb(73, 228, 236)" height="10" width="10" x="60" y="50" /><rect fill="rgb(73, 228, 236)" height="10" width="10" x="70" y="50" /><rect fill="rgb(219, 157, 19)" height="10" width="10" x="80" y="50" /><rect fill="rgb(130, 37, 160)" height="10" width="10" x="90" y="50" /><rect fill="rgb(230, 236, 139)" height="10" width="10" x="100" y="50" /><rect fill="rgb(35, 192, 78)" height="10" width="10" x="110" y="50" /><rect fill="rgb(35, 192, 78)" height="10" width="10" x="120" y="50" /><rect fill="rgb(177, 108, 30)" height="10" width="10" x="0" y="60" /><rect fill="rgb(177, 108, 30)" height="10" width="10" x="10" y="60" /><rect fill="rgb(141, 107, 193)" height="10" width="10" x="20" y="60" /><rect fill="rgb(141, 107, 193)" height="10" width="10" x="30" y="60" /><rect fill="rgb(141, 107, 193)" height="10" width="10" x="40" y="60" /><rect fill="rgb(177, 133, 66)" height="10" width="10" x="50" y="60" /><rect fill="rgb(73, 228, 236)" height="10" width="10" x="60" y="60" /><rect fill="rgb(29, 37, 197)" height="10" width="10" x="70" y="60" /><rect fill="rgb(130, 37, 160)" height="10" width="10" x="80" y="60" /><rect fill="rgb(130, 37, 160)" height="10" width="10" x="90" y="60" /><rect fill="rgb(130, 37, 160)" height="10" width="10" x="100" y="60" /><rect fill="rgb(160, 239, 165)" height="10" width="10" x="110" y="60" /><rect fill="rgb(35, 192, 78)" height="10" width="10" x="120" y="60" /><rect fill="rgb(177, 108, 30)" height="10" width="10" x="0" y="70" /><rect fill="rgb(156, 255, 102)" height="10" width="10" x="10" y="70" /><rect fill="rgb(45, 248, 149)" height="10" width="10" x="20" y="70" /><rect fill="rgb(45, 248, 149)" height="10" width="10" x="30" y="70" /><rect fill="rgb(45, 248, 149)" height="10" width="10" x="40" y="70" /><rect fill="rgb(177, 133, 66)" height="10" width="10" x="50" y="70" /><rect fill="rgb(177, 133, 66)" height="10" width="10" x="60" y="70" /><rect fill="rgb(29, 37, 197)" height="10" width="10" x="70" y="70" /><rect fill="rgb(29, 37, 197)" height="10" width="10" x="80" y="70" /><rect fill="rgb(167, 97, 107)" height="10" width="10" x="90" y="70" /><rect fill="rgb(160, 239, 165)" height="10" width="10" x="100" y="70" /><rect fill="rgb(160, 239, 165)" height="10" width="10" x="110" y="70" /><rect fill="rgb(160, 239, 165)" height="10" width="10" x="120" y="70" /><rect fill="rgb(156, 255, 102)" height="10" width="10" x="0" y="80" /><rect fill="rgb(156, 255, 102)" height="10" width="10" x="10" y="80" /><rect fill="rgb(156, 255, 102)" height="10" width="10" x="20" y="80" /><rect fill="rgb(45, 248, 149)" height="10" width="10" x="30" y="80" /><rect fill="rgb(202, 213, 95)" height="10" width="10" x="40" y="80" /><rect fill="rgb(177, 133, 66)" height="10" width="10" x="50" y="80" /><rect fill="rgb(177, 99, 204)" height="10" width="10" x="60" y="80" /><rect fill="rgb(29, 37, 197)" height="10" width="10" x="70" y="80" /><rect fill="rgb(167, 97, 107)" height="10" width="10" x="80" y="80" /><rect fill="rgb(167, 97, 107)" height="10" width="10" x="90" y="80" /><rect fill="rgb(69, 116, 115)" height="10" width="10" x="100" y="80" /><rect fill="rgb(69, 116, 115)" height="10" width="10" x="110" y="80" /><rect fill="rgb(69, 116, 115)" height="10" width="10" x="120" y="80" /><rect fill="rgb(76, 191, 81)" height="10" width="10" x="0" y="90" /><rect fill="rgb(88, 243, 68)" height="10" width="10" x="10" y="90" /><rect fill="rgb(88, 243, 68)" height="10" width="10" x="20" y="90" /><rect fill="rgb(88, 243, 68)" height="10" width="10" x="30" y="90" /><rect fill="rgb(202, 213, 95)" height="10" width="10" x="40" y="90" /><rect fill="rgb(202, 213, 95)" height="10" width="10" x="50" y="90" /><rect fill="rgb(177, 99, 204)" height="10" width="10" x="60" y="90" /><rect fill="rgb(177, 99, 204)" height="10" width="10" x="70" y="90" /><rect fill="rgb(166, 43, 217)" height="10" width="10" x="80" y="90" /><rect fill="rgb(167, 97, 107)" height="10" width="10" x="90" y="90" /><rect fill="rgb(229, 142, 246)" height="10" width="10" x="100" y="90" /><rect fill="rgb(69, 116, 115)" height="10" width="10" x="110" y="90" /><rect fill="rgb(0, 0, 0)" height="10" width="10" x="120" y="90" /><rect fill="rgb(76, 191, 81)" height="10" width="10" x="0" y="100" /><rect fill="rgb(76, 191, 81)" height="10" width="10" x="10" y="100" /><rect fill="rgb(88, 243, 68)" height="10" width="10" x="20" y="100" /><rect fill="rgb(73, 252, 33)" height="10" width="10" x="30" y="100" /><rect fill="rgb(202, 213, 95)" height="10" width="10" x="40" y="100" /><rect fill="rgb(8, 92, 150)" height="10" width="10" x="50" y="100" /><rect fill="rgb(177, 99, 204)" height="10" width="10" x="60" y="100" /><rect fill="rgb(166, 43, 217)" height="10" width="10" x="70" y="100" /><rect fill="rgb(166, 43, 217)" height="10" width="10" x="80" y="100" /><rect fill="rgb(229, 142, 246)" height="10" width="10" x="90" y="100" /><rect fill="rgb(229, 142, 246)" height="10" width="10" x="100" y="100" /><rect fill="rgb(0, 0, 0)" height="10" width="10" x="110" y="100" /><rect fill="rgb(0, 0, 0)" height="10" width="10" x="120" y="100" /><rect fill="rgb(76, 191, 81)" height="10" width="10" x="0" y="110" /><rect fill="rgb(187, 74, 114)" height="10" width="10" x="10" y="110" /><rect fill="rgb(73, 252, 33)" height="10" width="10" x="20" y="110" /><rect fill="rgb(73, 252, 33)" height="10" width="10" x="30" y="110" /><rect fill="rgb(73, 252, 33)" height="10" width="10" x="40" y="110" /><rect fill="rgb(8, 92, 150)" height="10" width="10" x="50" y="110" /><rect fill="rgb(8, 92, 150)" height="10" width="10" x="60" y="110" /><rect fill="rgb(220, 125, 242)" height="10" width="10" x="70" y="110" /><rect fill="rgb(166, 43, 217)" height="10" width="10" x="80" y="110" /><rect fill="rgb(229, 142, 246)" height="10" width="10" x="100" y="110" /><rect fill="rgb(0, 0, 0)" height="10" width="10" x="120" y="110" /><rect fill="rgb(187, 74, 114)" height="10" width="10" x="0" y="120" /><rect fill="rgb(187, 74, 114)" height="10" width="10" x="10" y="120" /><rect fill="rgb(112, 45, 143)" height="10" width="10" x="20" y="120" /><rect fill="rgb(112, 45, 143)" height="10" width="10" x="30" y="120" /><rect fill="rgb(112, 45, 143)" height="10" width="10" x="40" y="120" /><rect fill="rgb(8, 92, 150)" height="10" width="10" x="50" y="120" /><rect fill="rgb(220, 125, 242)" height="10" width="10" x="60" y="120" /><rect fill="rgb(220, 125, 242)" height="10" width="10" x="70" y="120" /><rect fill="rgb(220, 125, 242)" height="10" width="10" x="80" y="120" /><rect fill="rgb(187, 74, 114)" height="10" width="10" x="10" y="130" /><rect fill="rgb(112, 45, 143)" height="10" width="10" x="30" y="130" /></svg>