<?xml version="1.0" encoding="utf-8" ?>
<svg baseProfile="full" height="157" version="1.1" width="147" xmlns="http://www.w3.org/2000/svg" xmlns:ev="http://www.w3.org/2001/xml-events" xmlns:xlink="http://www.w3.org/1999/xlink"><defs /><rect fill="rgb(0, 0, 0)" height="7" width="3" x="0" y="3" /><rect fill="rgb(0, 0, 0)" height="7" width="3" x="30" y="3" /><rect fill="rgb(0, 0, 0)" height="7" width="3" x="40" y="3" /><rect fill="rgb(0, 0, 0)" height="7" width="3" x="70" y="3" /><rect fill="rgb(0, 0, 0)" height="7" width="3" x="80" y="3" /><rect fill="rgb(0, 0, 0)" height="7" width="3" x="90" y="3" /><rect fill="rgb(0, 0, 0)" height="7" width="3" x="100" y="3" /><rect fill="rgb(0, 0, 0)" height="7" width="3" x="130" y="3" /><rect fill="rgb(0, 0, 0)" height="7" width="3" x="0" y="13" /><rect fill="rgb(0, 0, 0)" height="7" width="3" x="10" y="13" /><rect fill="rgb(0, 0, 0)" height="7" width="3" x="20" y="13" /><rect fill="rgb(0, 0, 0)" height="7" width="3" x="50" y="13" /><rect fill="rgb(0, 0, 0)" height="7" width="3" x="60" y="13" /><rect fill="rgb(0, 0, 0)" height="7" width="3" x="70" y="13" /><rect fill="rgb(0, 0, 0)" height="7" width="3" x="90" y="13" /><rect fill="rgb(0, 0, 0)" height="7" width="3" x="110" y="13" /><rect fill="rgb(0, 0, 0)" height="7" width="3" x="120" y="13" /><rect fill="rgb(0, 0, 0)" height="7" width="3" x="130" y="13" /><rect fill="rgb(0, 0, 0)" height="7" width="3" x="0" y="23" /><rect fill="rgb(0, 0, 0)" height="7" width="3" x="20" y="23" /><rect fill="rgb(0, 0, 0)" height="7" width="3" x="50" y="23" /><rect fill="rgb(0, 0, 0)" height="7" width="3" x="80" y="23" /><rect fill="rgb(0, 0, 0)" height="7" width="3" x="90" y="23" /><rect fill="rgb(0, 0, 0)" height="7" width="3" x="100" y="23" /><rect fill="rgb(0, 0, 0)" height="7" width="3" x="110" y="23" /><rect fill="rgb(0, 0, 0)" height="7" width="3" x="130" y="23" /><rect fill="rgb(0, 0, 0)" height="7" width="3" x="0" y="33" /><rect fill="rgb(0, 0, 0)" height="7" width="3" x="10" y="33" /><rect fill="rgb(0, 0, 0)" height="7" width="3" x="20" y="33" /><rect fill="rgb(0, 0, 0)" height="7" width="3" x="30" y="33" /><rect fill="rgb(0, 0, 0)" height="7" width="3" x="40" y="33" /><rect fill="rgb(0, 0, 0)" height="7" width="3" x="50" y="33" /><rect fill="rgb(0, 0, 0)" height="7" width="3" x="80" y="33" /><rect fill="rgb(0, 0, 0)" height="7" width="3" x="90" y="33" /><rect fill="rgb(0, 0, 0)" height="7" width="3" x="120" y="33" /><rect fill="rgb(0, 0, 0)" height="7" width="3" x="130" y="33" /><rect fill="rgb(0, 0, 0)" height="7" width="3" x="0" y="43" /><rect fill="rgb(0, 0, 0)" height="7" width="3" x="20" y="43" /><rect fill="rgb(0, 0, 0)" height="7" width="3" x="40" y="43" /><rect fill="rgb(0, 0, 0)" height="7" width="3" x="60" y="43" /><rect fill="rgb(0, 0, 0)" height="7" width="3" x="70" y="43" /><rect fill="rgb(0, 0, 0)" height="7" width="3" x="90" y="43" /><rect fill="rgb(0, 0, 0)" height="7" width="3" x="120" y="43" /><rect fill="rgb(0, 0, 0)" height="7" width="3" x="130" y="43" /><rect fill="rgb(0, 0, 0)" height="7" width="3" x="0" y="53" /><rect fill="rgb(0, 0, 0)" height="7" width="3" x="10" y="53" /><rect fill="rgb(0, 0, 0)" height="7" width="3" x="20" y="53" /><rect fill="rgb(0, 0, 0)" height="7" width="3" x="30" y="53" /><rect fill="rgb(0, 0, 0)" height="7" width="3" x="40" y="53" /><rect fill="rgb(0, 0, 0)" height="7" width="3" x="50" y="53" /><rect fill="rgb(0, 0, 0)" height="7" width="3" x="80" y="53" /><rect fill="rgb(0, 0, 0)" height="7" width="3" x="90" y="53" /><rect fill="rgb(0, 0, 0)" height="7" width="3" x="100" y="53" /><rect fill="rgb(0, 0, 0)" height="7" width="3" x="110" y="53" /><rect fill="rgb(0, 0, 0)" height="7" width="3" x="130" y="53" /><rect fill="rgb(0, 0, 0)" height="7" width="3" x="0" y="63" /><rect fill="rgb(0, 0, 0)" height="7" width="3" x="20" y="63" /><rect fill="rgb(0, 0, 0)" height="7" width="3" x="50" y="63" /><rect fill="rgb(0, 0, 0)" height="7" width="3" x="60" y="63" /><rect fill="rgb(0, 0, 0)" height="7" width="3" x="70" y="63" /><rect fill="rgb(0, 0, 0)" height="7" width="3" x="80" y="63" /><rect fill="rgb(0, 0, 0)" height="7" width="3" x="110" y="63" /><rect fill="rgb(0, 0, 0)" height="7" width="3" x="120" y="63" /><rect fill="rgb(0, 0, 0)" height="7" width="3" x="130" y="63" /><rect fill="rgb(0, 0, 0)" height="7" width="3" x="0" y="73" /><rect fill="rgb(0, 0, 0)" height="7" width="3" x="10" y="73" /><rect fill="rgb(0, 0, 0)" height="7" width="3" x="20" y="73" /><rect fill="rgb(0, 0, 0)" height="7" width="3" x="50" y="73" /><rect fill="rgb(0, 0, 0)" height="7" width="3" x="70" y="73" /><rect fill="rgb(0, 0, 0)" height="7" width="3" x="90" y="73" /><rect fill="rgb(0, 0, 0)" height="7" width="3" x="100" y="73" /><rect fill="rgb(0, 0, 0)" height="7" width="3" x="130" y="73" /><rect fill="rgb(0, 0, 0)" height="7" width="3" x="0" y="83" /><rect fill="rgb(0, 0, 0)" height="7" width="3" x="30" y="83" /><rect fill="rgb(0, 0, 0)" height="7" width="3" x="40" y="83" /><rect fill="rgb(0, 0, 0)" height="7" width="3" x="50" y="83" /><rect fill="rgb(0, 0, 0)" height="7" width="3" x="60" y="83" /><rect fill="rgb(0, 0, 0)" height="7" width="3" x="70" y="83" /><rect fill="rgb(0, 0, 0)" height="7" width="3" x="80" y="83" /><rect fill="rgb(0, 0, 0)" height="7" width="3" x="100" y="83" /><rect fill="rgb(0, 0, 0)" height="7" width="3" x="130" y="83" /><rect fill="rgb(0, 0, 0)" height="7" width="3" x="0" y="93" /><rect fill="rgb(0, 0, 0)" height="7" width="3" x="10" y="93" /><rect fill="rgb(0, 0, 0)" height="7" width="3" x="40" y="93" /><rect fill="rgb(0, 0, 0)" height="7" width="3" x="60" y="93" /><rect fill="rgb(0, 0, 0)" height="7" width="3" x="80" y="93" /><rect fill="rgb(0, 0, 0)" height="7" width="3" x="90" y="93" /><rect fill="rgb(0, 0, 0)" height="7" width="3" x="100" y="93" /><rect fill="rgb(0, 0, 0)" height="7" width="3" x="110" y="93" /><rect fill="rgb(0, 0, 0)" height="7" width="3" x="120" y="93" /><rect fill="rgb(0, 0, 0)" height="7" width="3" x="130" y="93" /><rect fill="rgb(0, 0, 0)" height="7" width="3" x="0" y="103" /><rect fill="rgb(0, 0, 0)" height="7" width="3" x="20" y="103" /><rect fill="rgb(0, 0, 0)" height="7" width="3" x="30" y="103" /><rect fill="rgb(0, 0, 0)" height="7" width="3" x="40" y="103" /><rect fill="rgb(0, 0, 0)" height="7" width="3" x="50" y="103" /><rect fill="rgb(0, 0, 0)" height="7" width="3" x="60" y="103" /><rect fill="rgb(0, 0, 0)" height="7" width="3" x="70" y="103" /><rect fill="rgb(0, 0, 0)" height="7" width="3" x="90" y="103" /><rect fill="rgb(0, 0, 0)" height="7" width="3" x="110" y="103" /><rect fill="rgb(0, 0, 0)" height="7" width="3" x="130" y="103" /><rect fill="rgb(0, 0, 0)" height="7" width="3" x="0" y="113" /><rect fill="rgb(0, 0, 0)" height="7" width="3" x="10" y="113" /><rect fill="rgb(0, 0, 0)" height="7" width="3" x="20" y="113" /><rect fill="rgb(0, 0, 0)" height="7" width="3" x="50" y="113" /><rect fill="rgb(0, 0, 0)" height="7" width="3" x="70" y="113" /><rect fill="rgb(0, 0, 0)" height="7" width="3" x="80" y="113" /><rect fill="rgb(0, 0, 0)" height="7" width="3" x="90" y="113" /><rect fill="rgb(0, 0, 0)" height="7" width="3" x="100" y="113" /><rect fill="rgb(0, 0, 0)" height="7" width="3" x="110" y="113" /><rect fill="rgb(0, 0, 0)" height="7" width="3" x="120" y="113" /><rect fill="rgb(0, 0, 0)" height="7" width="3" x="130" y="113" /><rect fill="rgb(0, 0, 0)" height="7" width="3" x="0" y="123" /><rect fill="rgb(0, 0, 0)" height="7" width="3" x="20" y="123" /><rect fill="rgb(0, 0, 0)" height="7" width="3" x="50" y="123" /><rect fill="rgb(0, 0, 0)" height="7" width="3" x="60" y="123" /><rect fill="rgb(0, 0, 0)" height="7" width="3" x="90" y="123" /><rect fill="rgb(0, 0, 0)" height="7" width="3" x="10" y="133" /><rect fill="rgb(0, 0, 0)" height="7" width="3" x="20" y="133" /><rect fill="rgb(0, 0, 0)" height="7" width="3" x="30" y="133" /><rect fill="rgb(0, 0, 0)" height="7" width="3" x="40" y="133" /><rect fill="rgb(0, 0, 0)" height="3" width="7" x="3" y="0" /><rect fill="rgb(0, 0, 0)" height="3" width="7" x="13" y="0" /><rect fill="rgb(0, 0, 0)" height="3" width="7" x="23" y="0" /><rect fill="rgb(0, 0, 0)" height="3" width="7" x="33" y="0" /><rect fill="rgb(0, 0, 0)" height="3" width="7" x="43" y="0" /><rect fill="rgb(0, 0, 0)" height="3" width="7" x="53" y="0" /><rect fill="rgb(0, 0, 0)" height="3" width="7" x="63" y="0" /><rect fill="rgb(0, 0, 0)" height="3" width="7" x="73" y="0" /><rect fill="rgb(0, 0, 0)" height="3" width="7" x="83" y="0" /><rect fill="rgb(0, 0, 0)" height="3" width="7" x="93" y="0" /><rect fill="rgb(0, 0, 0)" height="3" width="7" x="103" y="0" /><rect fill="rgb(0, 0, 0)" height="3" width="7" x="113" y="0" /><rect fill="rgb(0, 0, 0)" height="3" width="7" x="123" y="0" /><rect fill="rgb(0, 0, 0)" height="3" width="7" x="3" y="10" /><rect fill="rgb(0, 0, 0)" height="3" width="7" x="23" y="10" /><rect fill="rgb(0, 0, 0)" height="3" width="7" x="43" y="10" /><rect fill="rgb(0, 0, 0)" height="3" width="7" x="63" y="10" /><rect fill="rgb(0, 0, 0)" height="3" width="7" x="73" y="10" /><rect fill="rgb(0, 0, 0)" height="3" width="7" x="103" y="10" /><rect fill="rgb(0, 0, 0)" height="3" width="7" x="123" y="10" /><rect fill="rgb(0, 0, 0)" height="3" width="7" x="13" y="20" /><rect fill="rgb(0, 0, 0)" height="3" width="7" x="23" y="20" /><rect fill="rgb(0, 0, 0)" height="3" width="7" x="33" y="20" /><rect fill="rgb(0, 0, 0)" height="3" width="7" x="43" y="20" /><rect fill="rgb(0, 0, 0)" height="3" width="7" x="53" y="20" /><rect fill="rgb(0, 0, 0)" height="3" width="7" x="73" y="20" /><rect fill="rgb(0, 0, 0)" height="3" width="7" x="103" y="20" /><rect fill="rgb(0, 0, 0)" height="3" width="7" x="113" y="20" /><rect fill="rgb(0, 0, 0)" height="3" width="7" x="13" y="30" /><rect fill="rgb(0, 0, 0)" height="3" width="7" x="23" y="30" /><rect fill="rgb(0, 0, 0)" height="3" width="7" x="43" y="30" /><rect fill="rgb(0, 0, 0)" height="3" width="7" x="53" y="30" /><rect fill="rgb(0, 0, 0)" height="3" width="7" x="63" y="30" /><rect fill="rgb(0, 0, 0)" height="3" width="7" x="73" y="30" /><rect fill="rgb(0, 0, 0)" height="3" width="7" x="83" y="30" /><rect fill="rgb(0, 0, 0)" height="3" width="7" x="93" y="30" /><rect fill="rgb(0, 0, 0)" height="3" width="7" x="113" y="30" /><rect fill="rgb(0, 0, 0)" height="3" width="7" x="3" y="40" /><rect fill="rgb(0, 0, 0)" height="3" width="7" x="33" y="40" /><rect fill="rgb(0, 0, 0)" height="3" width="7" x="53" y="40" /><rect fill="rgb(0, 0, 0)" height="3" width="7" x="73" y="40" /><rect fill="rgb(0, 0, 0)" height="3" width="7" x="93" y="40" /><rect fill="rgb(0, 0, 0)" height="3" width="7" x="103" y="40" /><rect fill="rgb(0, 0, 0)" height="3" width="7" x="113" y="40" /><rect fill="rgb(0, 0, 0)" height="3" width="7" x="123" y="40" /><rect fill="rgb(0, 0, 0)" height="3" width="7" x="3" y="50" /><rect fill="rgb(0, 0, 0)" height="3" width="7" x="33" y="50" /><rect fill="rgb(0, 0, 0)" height="3" width="7" x="53" y="50" /><rect fill="rgb(0, 0, 0)" height="3" width="7" x="63" y="50" /><rect fill="rgb(0, 0, 0)" height="3" width="7" x="73" y="50" /><rect fill="rgb(0, 0, 0)" height="3" width="7" x="93" y="50" /><rect fill="rgb(0, 0, 0)" height="3" width="7" x="113" y="50" /><rect fill="rgb(0, 0, 0)" height="3" width="7" x="13" y="60" /><rect fill="rgb(0, 0, 0)" height="3" width="7" x="23" y="60" /><rect fill="rgb(0, 0, 0)" height="3" width="7" x="43" y="60" /><rect fill="rgb(0, 0, 0)" height="3" width="7" x="53" y="60" /><rect fill="rgb(0, 0, 0)" height="3" width="7" x="73" y="60" /><rect fill="rgb(0, 0, 0)" height="3" width="7" x="83" y="60" /><rect fill="rgb(0, 0, 0)" height="3" width="7" x="103" y="60" /><rect fill="rgb(0, 0, 0)" height="3" width="7" x="113" y="60" /><rect fill="rgb(0, 0, 0)" height="3" width="7" x="13" y="70" /><rect fill="rgb(0, 0, 0)" height="3" width="7" x="23" y="70" /><rect fill="rgb(0, 0, 0)" height="3" width="7" x="33" y="70" /><rect fill="rgb(0, 0, 0)" height="3" width="7" x="43" y="70" /><rect fill="rgb(0, 0, 0)" height="3" width="7" x="63" y="70" /><rect fill="rgb(0, 0, 0)" height="3" width="7" x="83" y="70" /><rect fill="rgb(0, 0, 0)" height="3" width="7" x="93" y="70" /><rect fill="rgb(0, 0, 0)" height="3" width="7" x="103" y="70" /><rect fill="rgb(0, 0, 0)" height="3" width="7" x="123" y="70" /><rect fill="rgb(0, 0, 0)" height="3" width="7" x="3" y="80" /><rect fill="rgb(0, 0, 0)" height="3" width="7" x="23" y="80" /><rect fill="rgb(0, 0, 0)" height="3" width="7" x="43" y="80" /><rect fill="rgb(0, 0, 0)" height="3" width="7" x="63" y="80" /><rect fill="rgb(0, 0, 0)" height="3" width="7" x="83" y="80" /><rect fill="rgb(0, 0, 0)" height="3" width="7" x="103" y="80" /><rect fill="rgb(0, 0, 0)" height="3" width="7" x="113" y="80" /><rect fill="rgb(0, 0, 0)" height="3" width="7" x="123" y="80" /><rect fill="rgb(0, 0, 0)" height="3" width="7" x="3" y="90" /><rect fill="rgb(0, 0, 0)" height="3" width="7" x="13" y="90" /><rect fill="rgb(0, 0, 0)" height="3" width="7" x="23" y="90" /><rect fill="rgb(0, 0, 0)" height="3" width="7" x="33" y="90" /><rect fill="rgb(0, 0, 0)" height="3" width="7" x="53" y="90" /><rect fill="rgb(0, 0, 0)" height="3" width="7" x="73" y="90" /><rect fill="rgb(0, 0, 0)" height="3" width="7" x="83" y="90" /><rect fill="rgb(0, 0, 0)" height="3" width="7" x="103" y="90" /><rect fill="rgb(0, 0, 0)" height="3" width="7" x="123" y="90" /><rect fill="rgb(0, 0, 0)" height="3" width="7" x="13" y="100" /><rect fill="rgb(0, 0, 0)" height="3" width="7" x="33" y="100" /><rect fill="rgb(0, 0, 0)" height="3" width="7" x="53" y="100" /><rect fill="rgb(0, 0, 0)" height="3" width="7" x="73" y="100" /><rect fill="rgb(0, 0, 0)" height="3" width="7" x="93" y="100" /><rect fill="rgb(0, 0, 0)" height="3" width="7" x="113" y="100" /><rect fill="rgb(0, 0, 0)" height="3" width="7" x="13" y="110" /><rect fill="rgb(0, 0, 0)" height="3" width="7" x="23" y="110" /><rect fill="rgb(0, 0, 0)" height="3" width="7" x="43" y="110" /><rect fill="rgb(0, 0, 0)" height="3" width="7" x="63" y="110" /><rect fill="rgb(0, 0, 0)" height="3" width="7" x="73" y="110" /><rect fill="rgb(0, 0, 0)" height="3" width="7" x="93" y="110" /><rect fill="rgb(0, 0, 0)" height="3" width="7" x="113" y="110" /><rect fill="rgb(0, 0, 0)" height="3" width="7" x="3" y="120" /><rect fill="rgb(0, 0, 0)" height="3" width="7" x="23" y="120" /><rect fill="rgb(0, 0, 0)" height="3" width="7" x="33" y="120" /><rect fill="rgb(0, 0, 0)" height="3" width="7" x="43" y="120" /><rect fill="rgb(0, 0, 0)" height="3" width="7" x="63" y="120" /><rect fill="rgb(0, 0, 0)" height="3" width="7" x="83" y="120" /><rect fill="rgb(0, 0, 0)" height="3" width="7" x="103" y="120" /><rect fill="rgb(0, 0, 0)" height="3" width="7" x="123" y="120" /><rect fill="rgb(0, 0, 0)" height="3" width="7" x="3" y="130" /><rect fill="rgb(0, 0, 0)" height="3" width="7" x="23" y="130" /><rect fill="rgb(0, 0, 0)" height="3" width="7" x="43" y="130" /><rect fill="rgb(0, 0, 0)" height="3" width="7" x="53" y="130" /><rect fill="rgb(0, 0, 0)" height="3" width="7" x="63" y="130" /><rect fill="rgb(0, 0, 0)" height="3" width="7" x="73" y="130" /><rect fill="rgb(0, 0, 0)" height="3" width="7" x="83" y="130" /><rect fill="rgb(0, 0, 0)" height="3" width="7" x="13" y="140" /><rect fill="rgb(0, 0, 0)" height="3" width="7" x="33" y="140" /><rect fill="rgb(0, 0, 0)" height="3" width="3" x="0" y="0" /><rect fill="rgb(0, 0, 0)" height="3" width="3" x="10" y="0" /><rect fill="rgb(0, 0, 0)" height="3" width="3" x="20" y="0" /><rect fill="rgb(0, 0, 0)" height="3" width="3" x="30" y="0" /><rect fill="rgb(0, 0, 0)" height="3" width="3" x="40" y="0" /><rect fill="rgb(0, 0, 0)" height="3" width="3" x="50" y="0" /><rect fill="rgb(0, 0, 0)" height="3" width="3" x="60" y="0" /><rect fill="rgb(0, 0, 0)" height="3" width="3" x="70" y="0" /><rect fill="rgb(0, 0, 0)" height="3" width="3" x="80" y="0" /><rect fill="rgb(0, 0, 0)" height="3" width="3" x="90" y="0" /><rect fill="rgb(0, 0, 0)" height="3" width="3" x="100" y="0" /><rect fill="rgb(0, 0, 0)" height="3" width="3" x="110" y="0" /><rect fill="rgb(0, 0, 0)" height="3" width="3" x="120" y="0" /><rect fill="rgb(0, 0, 0)" height="3" width="3" x="130" y="0" /><rect fill="rgb(0, 0, 0)" height="3" width="3" x="0" y="10" /><rect fill="rgb(0, 0, 0)" height="3" width="3" x="10" y="10" /><rect fill="rgb(0, 0, 0)" height="3" width="3" x="20" y="10" /><rect fill="rgb(0, 0, 0)" height="3" width="3" x="30" y="10" /><rect fill="rgb(0, 0, 0)" height="3" width="3" x="40" y="10" /><rect fill="rgb(0, 0, 0)" height="3" width="3" x="50" y="10" /><rect fill="rgb(0, 0, 0)" height="3" width="3" x="60" y="10" /><rect fill="rgb(0, 0, 0)" height="3" width="3" x="70" y="10" /><rect fill="rgb(0, 0, 0)" height="3" width="3" x="80" y="10" /><rect fill="rgb(0, 0, 0)" height="3" width="3" x="90" y="10" /><rect fill="rgb(0, 0, 0)" height="3" width="3" x="100" y="10" /><rect fill="rgb(0, 0, 0)" height="3" width="3" x="110" y="10" /><rect fill="rgb(0, 0, 0)" height="3" width="3" x="120" y="10" /><rect fill="rgb(0, 0, 0)" height="3" width="3" x="130" y="10" /><rect fill="rgb(0, 0, 0)" height="3" width="3" x="0" y="20" /><rect fill="rgb(0, 0, 0)" height="3" width="3" x="10" y="20" /><rect fill="rgb(0, 0, 0)" height="3" width="3" x="20" y="20" /><rect fill="rgb(0, 0, 0)" height="3" width="3" x="30" y="20" /><rect fill="rgb(0, 0, 0)" height="3" width="3" x="40" y="20" /><rect fill="rgb(0, 0, 0)" height="3" width="3" x="50" y="20" /><rect fill="rgb(0, 0, 0)" height="3" width="3" x="60" y="20" /><rect fill="rgb(0, 0, 0)" height="3" width="3" x="70" y="20" /><rect fill="rgb(0, 0, 0)" height="3" width="3" x="80" y="20" /><rect fill="rgb(0, 0, 0)" height="3" width="3" x="90" y="20" /><rect fill="rgb(0, 0, 0)" height="3" width="3" x="100" y="20" /><rect fill="rgb(0, 0, 0)" height="3" width="3" x="110" y="20" /><rect fill="rgb(0, 0, 0)" height="3" width="3" x="120" y="20" /><rect fill="rgb(0, 0, 0)" height="3" width="3" x="130" y="20" /><rect fill="rgb(0, 0, 0)" height="3" width="3" x="0" y="30" /><rect fill="rgb(0, 0, 0)" height="3" width="3" x="10" y="30" /><rect fill="rgb(0, 0, 0)" height="3" width="3" x="20" y="30" /><rect fill="rgb(0, 0, 0)" height="3" width="3" x="30" y="30" /><rect fill="rgb(0, 0, 0)" height="3" width="3" x="40" y="30" /><rect fill="rgb(0, 0, 0)" height="3" width="3" x="50" y="30" /><rect fill="rgb(0, 0, 0)" height="3" width="3" x="60" y="30" /><rect fill="rgb(0, 0, 0)" height="3" width="3" x="70" y="30" /><rect fill="rgb(0, 0, 0)" height="3" width="3" x="80" y="30" /><rect fill="rgb(0, 0, 0)" height="3" width="3" x="90" y="30" /><rect fill="rgb(0, 0, 0)" height="3" width="3" x="100" y="30" /><rect fill="rgb(0, 0, 0)" height="3" width="3" x="110" y="30" /><rect fill="rgb(0, 0, 0)" height="3" width="3" x="120" y="30" /><rect fill="rgb(0, 0, 0)" height="3" width="3" x="130" y="30" /><rect fill="rgb(0, 0, 0)" height="3" width="3" x="0" y="40" /><rect fill="rgb(0, 0, 0)" height="3" width="3" x="10" y="40" /><rect fill="rgb(0, 0, 0)" height="3" width="3" x="20" y="40" /><rect fill="rgb(0, 0, 0)" height="3" width="3" x="30" y="40" /><rect fill="rgb(0, 0, 0)" height="3" width="3" x="40" y="40" /><rect fill="rgb(0, 0, 0)" height="3" width="3" x="50" y="40" /><rect fill="rgb(0, 0, 0)" height="3" width="3" x="60" y="40" /><rect fill="rgb(0, 0, 0)" height="3" width="3" x="70" y="40" /><rect fill="rgb(0, 0, 0)" height="3" width="3" x="80" y="40" /><rect fill="rgb(0, 0, 0)" height="3" width="3" x="90" y="40" /><rect fill="rgb(0, 0, 0)" height="3" width="3" x="100" y="40" /><rect fill="rgb(0, 0, 0)" height="3" width="3" x="110" y="40" /><rect fill="rgb(0, 0, 0)" height="3" width="3" x="120" y="40" /><rect fill="rgb(0, 0, 0)" height="3" width="3" x="130" y="40" /><rect fill="rgb(0, 0, 0)" height="3" width="3" x="0" y="50" /><rect fill="rgb(0, 0, 0)" height="3" width="3" x="10" y="50" /><rect fill="rgb(0, 0, 0)" height="3" width="3" x="20" y="50" /><rect fill="rgb(0, 0, 0)" height="3" width="3" x="30" y="50" /><rect fill="rgb(0, 0, 0)" height="3" width="3" x="40" y="50" /><rect fill="rgb(0, 0, 0)" height="3" width="3" x="50" y="50" /><rect fill="rgb(0, 0, 0)" height="3" width="3" x="60" y="50" /><rect fill="rgb(0, 0, 0)" height="3" width="3" x="70" y="50" /><rect fill="rgb(0, 0, 0)" height="3" width="3" x="80" y="50" /><rect fill="rgb(0, 0, 0)" height="3" width="3" x="90" y="50" /><rect fill="rgb(0, 0, 0)" height="3" width="3" x="100" y="50" /><rect fill="rgb(0, 0, 0)" height="3" width="3" x="110" y="50" /><rect fill="rgb(0, 0, 0)" height="3" width="3" x="120" y="50" /><rect fill="rgb(0, 0, 0)" height="3" width="3" x="130" y="50" /><rect fill="rgb(0, 0, 0)" height="3" width="3" x="0" y="60" /><rect fill="rgb(0, 0, 0)" height="3" width="3" x="10" y="60" /><rect fill="rgb(0, 0, 0)" height="3" width="3" x="20" y="60" /><rect fill="rgb(0, 0, 0)" height="3" width="3" x="30" y="60" /><rect fill="rgb(0, 0, 0)" height="3" width="3" x="40" y="60" /><rect fill="rgb(0, 0, 0)" height="3" width="3" x="50" y="60" /><rect fill="rgb(0, 0, 0)" height="3" width="3" x="60" y="60" /><rect fill="rgb(0, 0, 0)" height="3" width="3" x="70" y="60" /><rect fill="rgb(0, 0, 0)" height="3" width="3" x="80" y="60" /><rect fill="rgb(0, 0, 0)" height="3" width="3" x="90" y="60" /><rect fill="rgb(0, 0, 0)" height="3" width="3" x="100" y="60" /><rect fill="rgb(0, 0, 0)" height="3" width="3" x="110" y="60" /><rect fill="rgb(0, 0, 0)" height="3" width="3" x="120" y="60" /><rect fill="rgb(0, 0, 0)" height="3" width="3" x="130" y="60" /><rect fill="rgb(0, 0, 0)" height="3" width="3" x="0" y="70" /><rect fill="rgb(0, 0, 0)" height="3" width="3" x="10" y="70" /><rect fill="rgb(0, 0, 0)" height="3" width="3" x="20" y="70" /><rect fill="rgb(0, 0, 0)" height="3" width="3" x="30" y="70" /><rect fill="rgb(0, 0, 0)" height="3" width="3" x="40" y="70" /><rect fill="rgb(0, 0, 0)" height="3" width="3" x="50" y="70" /><rect fill="rgb(0, 0, 0)" height="3" width="3" x="60" y="70" /><rect fill="rgb(0, 0, 0)" height="3" width="3" x="70" y="70" /><rect fill="rgb(0, 0, 0)" height="3" width="3" x="80" y="70" /><rect fill="rgb(0, 0, 0)" height="3" width="3" x="90" y="70" /><rect fill="rgb(0, 0, 0)" height="3" width="3" x="100" y="70" /><rect fill="rgb(0, 0, 0)" height="3" width="3" x="110" y="70" /><rect fill="rgb(0, 0, 0)" height="3" width="3" x="120" y="70" /><rect fill="rgb(0, 0, 0)" height="3" width="3" x="130" y="70" /><rect fill="rgb(0, 0, 0)" height="3" width="3" x="0" y="80" /><rect fill="rgb(0, 0, 0)" height="3" width="3" x="10" y="80" /><rect fill="rgb(0, 0, 0)" height="3" width="3" x="20" y="80" /><rect fill="rgb(0, 0, 0)" height="3" width="3" x="30" y="80" /><rect fill="rgb(0, 0, 0)" height="3" width="3" x="40" y="80" /><rect fill="rgb(0, 0, 0)" height="3" width="3" x="50" y="80" /><rect fill="rgb(0, 0, 0)" height="3" width="3" x="60" y="80" /><rect fill="rgb(0, 0, 0)" height="3" width="3" x="70" y="80" /><rect fill="rgb(0, 0, 0)" height="3" width="3" x="80" y="80" /><rect fill="rgb(0, 0, 0)" height="3" width="3" x="90" y="80" /><rect fill="rgb(0, 0, 0)" height="3" width="3" x="100" y="80" /><rect fill="rgb(0, 0, 0)" height="3" width="3" x="110" y="80" /><rect fill="rgb(0, 0, 0)" height="3" width="3" x="120" y="80" /><rect fill="rgb(0, 0, 0)" height="3" width="3" x="130" y="80" /><rect fill="rgb(0, 0, 0)" height="3" width="3" x="0" y="90" /><rect fill="rgb(0, 0, 0)" height="3" width="3" x="10" y="90" /><rect fill="rgb(0, 0, 0)" height="3" width="3" x="20" y="90" /><rect fill="rgb(0, 0, 0)" height="3" width="3" x="30" y="90" /><rect fill="rgb(0, 0, 0)" height="3" width="3" x="40" y="90" /><rect fill="rgb(0, 0, 0)" height="3" width="3" x="50" y="90" /><rect fill="rgb(0, 0, 0)" height="3" width="3" x="60" y="90" /><rect fill="rgb(0, 0, 0)" height="3" width="3" x="70" y="90" /><rect fill="rgb(0, 0, 0)" height="3" width="3" x="80" y="90" /><rect fill="rgb(0, 0, 0)" height="3" width="3" x="90" y="90" /><rect fill="rgb(0, 0, 0)" height="3" width="3" x="100" y="90" /><rect fill="rgb(0, 0, 0)" height="3" width="3" x="110" y="90" /><rect fill="rgb(0, 0, 0)" height="3" width="3" x="120" y="90" /><rect fill="rgb(0, 0, 0)" height="3" width="3" x="130" y="90" /><rect fill="rgb(0, 0, 0)" height="3" width="3" x="0" y="100" /><rect fill="rgb(0, 0, 0)" height="3" width="3" x="10" y="100" /><rect fill="rgb(0, 0, 0)" height="3" width="3" x="20" y="100" /><rect fill="rgb(0, 0, 0)" height="3" width="3" x="30" y="100" /><rect fill="rgb(0, 0, 0)" height="3" width="3" x="40" y="100" /><rect fill="rgb(0, 0, 0)" height="3" width="3" x="50" y="100" /><rect fill="rgb(0, 0, 0)" height="3" width="3" x="60" y="100" /><rect fill="rgb(0, 0, 0)" height="3" width="3" x="70" y="100" /><rect fill="rgb(0, 0, 0)" height="3" width="3" x="80" y="100" /><rect fill="rgb(0, 0, 0)" height="3" width="3" x="90" y="100" /><rect fill="rgb(0, 0, 0)" height="3" width="3" x="100" y="100" /><rect fill="rgb(0, 0, 0)" height="3" width="3" x="110" y="100" /><rect fill="rgb(0, 0, 0)" height="3" width="3" x="120" y="100" /><rect fill="rgb(0, 0, 0)" height="3" width="3" x="130" y="100" /><rect fill="rgb(0, 0, 0)" height="3" width="3" x="0" y="110" /><rect fill="rgb(0, 0, 0)" height="3" width="3" x="10" y="110" /><rect fill="rgb(0, 0, 0)" height="3" width="3" x="20" y="110" /><rect fill="rgb(0, 0, 0)" height="3" width="3" x="30" y="110" /><rect fill="rgb(0, 0, 0)" height="3" width="3" x="40" y="110" /><rect fill="rgb(0, 0, 0)" height="3" width="3" x="50" y="110" /><rect fill="rgb(0, 0, 0)" height="3" width="3" x="60" y="110" /><rect fill="rgb(0, 0, 0)" height="3" width="3" x="70" y="110" /><rect fill="rgb(0, 0, 0)" height="3" width="3" x="80" y="110" /><rect fill="rgb(0, 0, 0)" height="3" width="3" x="90" y="110" /><rect fill="rgb(0, 0, 0)" height="3" width="3" x="100" y="110" /><rect fill="rgb(0, 0, 0)" height="3" width="3" x="110" y="110" /><rect fill="rgb(0, 0, 0)" height="3" width="3" x="120" y="110" /><rect fill="rgb(0, 0, 0)" height="3" width="3" x="130" y="110" /><rect fill="rgb(0, 0, 0)" height="3" width="3" x="0" y="120" /><rect fill="rgb(0, 0, 0)" height="3" width="3" x="10" y="120" /><rect fill="rgb(0, 0, 0)" height="3" width="3" x="20" y="120" /><rect fill="rgb(0, 0, 0)" height="3" width="3" x="30" y="120" /><rect fill="rgb(0, 0, 0)" height="3" width="3" x="40" y="120" /><rect fill="rgb(0, 0, 0)" height="3" width="3" x="50" y="120" /><rect fill="rgb(0, 0, 0)" height="3" width="3" x="60" y="120" /><rect fill="rgb(0, 0, 0)" height="3" width="3" x="70" y="120" /><rect fill="rgb(0, 0, 0)" height="3" width="3" x="80" y="120" /><rect fill="rgb(0, 0, 0)" height="3" width="3" x="90" y="120" /><rect fill="rgb(0, 0, 0)" height="3" width="3" x="100" y="120" /><rect fill="rgb(0, 0, 0)" height="3" width="3" x="110" y="120" /><rect fill="rgb(0, 0, 0)" height="3" width="3" x="120" y="120" /><rect fill="rgb(0, 0, 0)" height="3" width="3" x="130" y="120" /><rect fill="rgb(0, 0, 0)" height="3" width="3" x="0" y="130" /><rect fill="rgb(0, 0, 0)" height="3" width="3" x="10" y="130" /><rect fill="rgb(0, 0, 0)" height="3" width="3" x="20" y="130" /><rect fill="rgb(0, 0, 0)" height="3" width="3" x="30" y="130" /><rect fill="rgb(0, 0, 0)" height="3" width="3" x="40" y="130" /><rect fill="rgb(0, 0, 0)" height="3" width="3" x="50" y="130" /><rect fill="rgb(0, 0, 0)" height="3" width="3" x="60" y="130" /><rect fill="rgb(0, 0, 0)" height="3" width="3" x="70" y="130" /><rect fill="rgb(0, 0, 0)" height="3" width="3" x="80" y="130" /><rect fill="rgb(0, 0, 0)" height="3" width="3" x="90" y="130" /><rect fill="rgb(0, 0, 0)" height="3" width="3" x="10" y="140" /><rect fill="rgb(0, 0, 0)" height="3" width="3" x="20" y="140" /><rect fill="rgb(0, 0, 0)" height="3" width="3" x="30" y="140" /><rect fill="rgb(0, 0, 0)" height="3" width="3" x="40" y="140" /></svg>